<svg version="1.1" xmlns="http://www.w3.org/2000/svg" style="display: block;" viewBox="0 0 2996 2996" width="2484" height="2996" preserveAspectRatio="none">
<path transform="translate(0,0)" fill="rgb(15,104,79)" d="M 1438.38 0 L 1542.99 0 C 1566.75 2.5753 1595.37 2.80801 1619.97 4.56701 C 1668.89 8.0168 1717.64 13.4764 1766.11 20.932 C 2016.31 58.1713 2254.38 153.235 2461.42 298.572 C 2500.13 326.241 2548.31 363.564 2583.25 396.291 C 2697.46 401.617 2811.2 414.434 2923.74 434.662 C 2920.17 445.614 2916.83 455.724 2913.99 466.884 C 2825.78 455.679 2722.08 444.625 2632.89 442.94 C 2847.84 658.26 2978.9 928.366 2979.39 1236.2 C 2979.86 1539.01 2846.29 1816.42 2632.87 2027.48 C 2333.07 2323.97 1906.08 2471.52 1488.54 2470.29 C 1378.62 2470.08 1268.95 2459.93 1160.86 2439.96 C 1137.42 2435.58 1098.88 2428.4 1076.16 2421.65 C 1182.46 2637.57 1327.35 2832.22 1503.69 2996 L 1422.73 2996 C 1292.72 2873.26 1164.28 2718.11 1073.06 2564.32 C 1052.21 2529.38 1032.52 2493.76 1014.03 2457.52 C 1008.12 2445.91 990.66 2407.5 985.313 2399.05 L 984.19 2397.31 C 916.893 2377.16 850.933 2352.79 786.702 2324.34 C 526.143 2208.62 294.75 2022.63 148.992 1775.01 C 113.703 1715.06 88.7151 1659.79 63.8535 1595.29 C 51.2631 1602.66 42.5088 1608.23 30.6357 1616.68 L 16.5582 1603.11 C 29.8821 1593.3 43.1948 1585.37 57.6594 1577.43 C 32.8022 1505.88 15.7544 1431.85 6.8131 1356.63 C 3.7451 1331.23 3.44668 1303.92 0.224109 1279.47 L 0 1277.85 L 0 1194.22 C 1.98237 1184.69 3.56222 1149.26 4.59438 1137.16 C 7.29246 1107.71 11.3456 1078.4 16.7409 1049.32 C 51.1943 867.124 130.579 696.409 247.698 552.654 C 474.456 269.206 817.564 91.8159 1171.42 28.2348 C 1230.28 17.6901 1289.63 10.0446 1349.25 5.32594 C 1377.74 3.09438 1410.99 3.03614 1438.38 0 z"/>
<path transform="translate(0,0)" fill="rgb(210,14,66)" d="M 2363.52 446.952 C 2386.36 443.514 2434.96 442.191 2459.61 441.699 C 2514.51 440.604 2578.1 439.421 2632.89 442.94 C 2847.84 658.26 2978.9 928.366 2979.39 1236.2 C 2979.86 1539.01 2846.29 1816.42 2632.87 2027.48 C 2333.07 2323.97 1906.08 2471.52 1488.54 2470.29 C 1378.62 2470.08 1268.95 2459.93 1160.86 2439.96 C 1137.42 2435.58 1098.88 2428.4 1076.16 2421.65 C 1009.15 2283.94 962.727 2137.14 938.37 1985.94 C 941.691 1984.87 945.021 1983.83 948.359 1982.82 C 1101.21 1936.46 1171.59 1937.55 1312.33 2013.03 C 1176.88 2168.59 1305.63 2367.91 1488.45 2400.22 C 1572.14 2415.3 1658.38 2396.38 1728.08 2347.65 C 1754.65 2371.88 1766.16 2387.29 1783.9 2418.06 L 1801.83 2411.37 C 1782.99 2378.11 1770.28 2362.09 1742.3 2336.45 C 1828.85 2254.64 1833.46 2132.28 1759 2041.16 C 1656.35 1915.52 1458.52 1891.77 1332.01 1994.21 C 1329.6 1992.84 1327.18 1991.49 1324.75 1990.17 C 1175.08 1908.87 1093.36 1913.69 934.73 1960.58 C 901.878 1750.72 928.231 1533.66 997.865 1334.03 C 999.062 1333.95 1000.26 1333.88 1001.46 1333.82 C 1135.24 1327.11 1203 1335.13 1305.17 1427.31 C 1170.83 1520.05 1222.64 1700.33 1356.78 1761.89 C 1429.03 1795.04 1499.32 1799.03 1574.5 1773.2 C 1590.69 1794.76 1597.74 1813.11 1605.36 1838.46 L 1622.16 1835.25 C 1613.51 1805.53 1607.11 1792 1589.95 1766.52 C 1755.89 1679.15 1688.38 1470.24 1536.27 1413.66 C 1463.78 1386.69 1401.63 1383.46 1329.73 1413.64 C 1328.87 1412.82 1328 1412 1327.13 1411.18 C 1222.07 1312.93 1144.03 1304.82 1007.24 1309.27 C 1073.75 1146.23 1154.45 1020.16 1278.17 893.663 L 1279.53 893.533 C 1343.41 887.912 1414.25 886.849 1474.5 910.685 C 1515.1 926.746 1547.38 952.723 1580.52 980.188 C 1446.49 1075.9 1512.21 1259.86 1647.18 1314.72 C 1720.16 1344.39 1788.12 1346.95 1861.79 1318.62 C 1879.17 1343.29 1883.61 1355.88 1892.48 1384.33 L 1909.02 1381.28 C 1901.9 1353.68 1893.02 1334.48 1876.64 1311.52 C 1911.36 1292.12 1940.01 1262.29 1954.34 1225.21 C 1997.7 1113.08 1916.27 999.914 1811.71 961.486 C 1739.37 934.899 1674.71 935.025 1604.89 965.734 C 1503.08 877.451 1439.34 860.771 1305.22 866.972 C 1474.46 706.942 1667.46 602.704 1888.59 532.454 C 1912.56 538.565 1936.24 545.718 1959.59 553.892 C 2047.05 585.162 2079.33 620.09 2118.19 702.103 C 2080.14 710.367 2045.22 729.293 2017.52 756.669 C 1982.85 791.158 1963.62 838.221 1964.22 887.125 C 1965.06 939.728 1986.85 989.823 2024.77 1026.3 C 2075.41 1074.96 2140 1092.6 2208.67 1091.02 C 2213.56 1119.02 2205.59 1139.59 2207.59 1153.98 C 2211.88 1156.03 2211.57 1155.89 2216.33 1155.28 C 2222.67 1143.38 2221.53 1104.57 2219.34 1089.69 C 2270.74 1081.88 2316.44 1059.78 2350.31 1019.52 C 2381.56 982.609 2396.75 934.725 2392.48 886.545 C 2381.11 762.312 2261.51 687.506 2143 698.03 C 2094.93 585.939 2038.32 555.943 1926.82 520.92 C 2005.07 498.42 2084.64 480.825 2165.08 468.239 C 2182.39 465.516 2223.89 458.554 2241.03 458.135 C 2262.98 457.598 2308.17 461.368 2329.78 464.888 C 2413.72 478.559 2458.03 507.71 2507.24 574.788 C 2482.24 589.187 2463.19 604.701 2447.89 629.732 C 2428.14 662.469 2422.34 701.755 2431.78 738.803 C 2459.7 851.956 2586.74 903.577 2693.63 875.598 C 2705.42 897.736 2703.37 907.641 2711.57 927.595 C 2715.38 929.383 2718.91 928.214 2723.26 927.548 L 2724.79 925.145 C 2725.27 910.214 2714.28 884.1 2708.06 870.718 C 2741.29 855.864 2767.55 835.384 2785.12 802.886 C 2803.27 768.515 2806.97 728.326 2795.39 691.222 C 2771.2 611.076 2689.16 557.553 2607.56 553.543 C 2579.96 552.187 2559.11 555.752 2532.89 563.729 C 2485.46 497.68 2442.05 466.805 2363.52 446.952 z"/>
<path transform="translate(0,0)" fill="rgb(210,14,66)" d="M 1438.38 0 L 1542.99 0 C 1566.75 2.5753 1595.37 2.80801 1619.97 4.56701 C 1668.89 8.0168 1717.64 13.4764 1766.11 20.932 C 2016.31 58.1713 2254.38 153.235 2461.42 298.572 C 2500.13 326.241 2548.31 363.564 2583.25 396.291 C 2490.6 391.79 2397.76 392.944 2305.25 399.746 C 2256.76 291.837 2218.14 259.221 2100.97 233.952 C 2110.46 146.916 2044.12 91.1702 1964.65 73.1899 C 1870.42 51.8713 1733.87 94.0262 1710.92 199.627 C 1680.7 198.491 1658.29 200.31 1628.58 207.389 L 1633.24 221.807 C 1663.36 216.114 1678.55 213.619 1709.72 214.978 C 1712.54 409.759 2039.29 426.633 2098.64 246.593 C 2209.02 273.058 2242.52 297.191 2289.46 401.003 C 2107.15 417.788 1964.53 446.794 1791.58 507.656 C 1672.34 425.958 1598.01 404.535 1452.38 432.63 C 1451.32 432.831 1450.27 433.055 1449.22 433.303 C 1352.57 269.896 1038.12 316.536 994.871 491.931 C 987.53 521.354 990.009 552.371 1001.93 580.255 C 968.002 592.239 947.883 603.483 918.401 624.703 L 932.345 638.197 C 959.645 619.354 978.456 607.147 1010.79 596.497 C 1143.84 786.077 1515.91 663.897 1457.73 452.739 C 1593.33 430.882 1650.48 439.078 1766.3 517.311 C 1528.99 610.342 1328.23 741.538 1160.85 935.825 C 1050.7 782.103 927.217 786.772 762.055 841.013 C 675.26 715.863 475.664 719.809 361.003 801.131 C 316.453 832.729 279.767 877.434 270.047 932.272 C 263.83 965.812 269.42 1000.47 285.867 1030.36 C 251.386 1046.62 230.422 1057.35 201.32 1083.35 L 216.971 1095.5 C 244.075 1071.87 263.519 1060.41 296.512 1046.23 C 303.321 1054.51 310.312 1062.67 318.304 1069.83 C 425.859 1166.2 601.566 1156.25 709.76 1066.22 C 749.471 1033.17 780.302 987.788 785.123 935.701 C 787.499 910.684 783.436 885.476 773.321 862.472 C 931.865 810.715 1041.83 806.407 1143.01 957.295 C 1031.77 1092.24 948.813 1248.18 899.064 1415.83 C 833.729 1377.53 770.234 1364.83 695.658 1384.1 C 679.965 1388.27 664.603 1393.59 649.696 1400.03 C 558.936 1188.98 201.912 1223.67 122.766 1427.1 C 106.654 1468.51 105.275 1512.12 119.579 1554.04 C 96.5555 1560.93 79.5113 1566.33 57.6594 1577.43 C 32.8022 1505.88 15.7544 1431.85 6.8131 1356.63 C 3.7451 1331.23 3.44668 1303.92 0.224109 1279.47 L 0 1277.85 L 0 1194.22 C 1.98237 1184.69 3.56222 1149.26 4.59438 1137.16 C 7.29246 1107.71 11.3456 1078.4 16.7409 1049.32 C 51.1943 867.124 130.579 696.409 247.698 552.654 C 474.456 269.206 817.564 91.8159 1171.42 28.2348 C 1230.28 17.6901 1289.63 10.0446 1349.25 5.32594 C 1377.74 3.09438 1410.99 3.03614 1438.38 0 z"/>
<path transform="translate(0,0)" fill="rgb(210,14,66)" d="M 126.909 1570.95 C 161.422 1633.9 213.32 1671.73 283.611 1693.18 C 440.819 1741.15 667.131 1640.82 662.267 1456.31 C 662.062 1448.53 656.565 1425.36 657.798 1419.61 L 661.92 1423.56 C 668.849 1421.79 673.638 1418.85 680.159 1416.39 C 752.548 1389.08 828.422 1399.16 891.294 1443.86 C 822.611 1703.67 833.691 1962.75 915.293 2218.59 C 928.839 2260.55 944.033 2301.95 960.84 2342.71 C 967.593 2359.2 978.877 2381.5 984.19 2397.31 C 916.893 2377.16 850.933 2352.79 786.702 2324.34 C 526.143 2208.62 294.75 2022.63 148.992 1775.01 C 113.703 1715.06 88.7151 1659.79 63.8535 1595.29 C 85.2111 1584.25 103.465 1577.02 126.909 1570.95 z"/>
<path transform="translate(0,0)" fill="rgb(254,254,254)" d="M 400.262 1263.11 C 428.972 1260.83 473.659 1268.83 500.527 1277.81 C 650.666 1328.02 705.32 1474.82 601.419 1599.75 L 531.036 1527.98 L 517.246 1537.51 L 590.178 1611.85 C 546.257 1652.78 508.295 1672.13 451.055 1688.39 L 428.203 1592.34 C 455.138 1578.74 462.283 1549.06 433.508 1534.94 C 396.775 1516.91 350.834 1575.27 410.85 1592.53 C 413.592 1604.21 431.329 1684.54 434.626 1689.45 C 438.259 1689.47 441.266 1689.31 444.879 1689.11 C 435.818 1694.25 388.137 1698.42 377.065 1698.85 C 336.639 1699.84 306.655 1694.39 268.687 1681.96 C 274.485 1666.28 302.596 1596.87 304.262 1585.15 C 299.644 1582.9 299.815 1582.88 294.774 1582.08 C 292.154 1584.62 261.487 1667.18 257.525 1677.58 C 233.538 1667.77 211.11 1654.52 190.95 1638.24 C 96.4951 1561.41 95.2597 1455.03 169.762 1363.5 C 197.548 1383.76 225.509 1405.14 253.098 1425.77 C 249.848 1432.45 248.282 1439.97 249.426 1447.37 C 250.613 1455.01 254.98 1461.8 261.446 1466.05 C 297.01 1489.74 341.456 1441.68 300.339 1416.36 C 289.645 1409.78 276.84 1411.98 265.053 1415.28 L 180.497 1351.98 C 241.267 1292.1 316.205 1266.34 400.262 1263.11 z"/>
<path transform="translate(0,0)" fill="rgb(15,104,79)" d="M 518.099 1448.63 C 566.093 1444.84 582.158 1489.25 541.212 1507.93 C 492.01 1512.69 477.601 1467.05 518.099 1448.63 z"/>
<path transform="translate(0,0)" fill="rgb(15,104,79)" d="M 332.604 1272.26 C 336.911 1272.13 336.819 1271.9 340.78 1273.4 C 344.43 1282.6 368.383 1366.93 367.681 1371.52 L 362.496 1373.96 C 356.97 1374.85 352.424 1376.78 350.542 1370.58 C 341.188 1339.77 332.45 1308.61 324.497 1277.4 C 324.933 1276.45 325.368 1275.49 325.803 1274.53 L 332.604 1272.26 z"/>
<path transform="translate(0,0)" fill="rgb(15,104,79)" d="M 502.588 1282.68 C 509.142 1284.09 510.342 1283.24 514.641 1287.04 C 513.846 1294.58 508.236 1312.43 505.884 1320.66 L 487.706 1384.21 L 485.446 1383.75 C 480.57 1382.75 477.847 1382.81 475.564 1379.32 C 479.071 1359.5 496.351 1304.27 502.588 1282.68 z"/>
<path transform="translate(0,0)" fill="rgb(254,254,254)" d="M 1506.32 1950.59 C 1511.13 1950.26 1514.31 1949.71 1517.66 1952.37 C 1516.45 1963.95 1497.2 2028.32 1493.09 2042.83 L 1509.96 2046.1 C 1515.68 2025.32 1530.28 1967.62 1537.34 1950.86 C 1594.28 1956.62 1633.01 1969.72 1681.24 1999.96 L 1606.61 2075.67 L 1620.45 2085.12 L 1694.93 2009.68 C 1737.81 2045.48 1762.41 2076.11 1779.27 2130.19 L 1680.63 2154.9 C 1645.84 2114.98 1596.9 2161.81 1621.16 2190.63 C 1636.36 2208.68 1681.1 2203.41 1684.07 2164.6 L 1782.01 2140.05 C 1783.04 2145.77 1783.97 2151.51 1784.82 2157.26 C 1791.64 2206.52 1778.65 2256.48 1748.68 2296.18 C 1709.07 2348.72 1643.12 2373.56 1580.02 2382.67 C 1569.73 2383.85 1560.2 2384.24 1549.87 2384.73 C 1556.06 2353.27 1562.06 2321.77 1567.87 2290.24 L 1551.58 2288.12 L 1533.26 2384.61 C 1477.78 2382.42 1429.99 2366.28 1384.01 2335.64 C 1406.41 2310.36 1428.95 2285.21 1451.62 2260.18 C 1469.25 2259.07 1490.69 2255.94 1496.5 2236.51 C 1513.75 2178.82 1401.6 2193.45 1436.62 2251.73 L 1370.43 2325.87 C 1327.58 2290.52 1305.45 2258.44 1288.24 2206.08 C 1305.86 2199.59 1371.04 2176.86 1384.27 2168.8 L 1384.75 2165.59 L 1382.16 2162.47 C 1372.32 2158.66 1355.31 2167.91 1345.25 2171.76 L 1285.29 2194.33 C 1283.79 2184.94 1282.36 2175.88 1281.76 2166.38 C 1278.39 2115.43 1295.83 2065.3 1330.11 2027.46 C 1376 1976.07 1439.23 1954.72 1506.32 1950.59 z"/>
<path transform="translate(0,0)" fill="rgb(15,104,79)" d="M 1403.78 2083.44 C 1415.14 2083.03 1419.02 2084.37 1429.4 2087.84 C 1452.93 2112.07 1439.94 2136.48 1409.15 2142.94 C 1363.03 2142.26 1357.63 2093.95 1403.78 2083.44 z"/>
<path transform="translate(0,0)" fill="rgb(254,254,254)" d="M 544.538 752.601 C 561.285 751.449 586.485 754.622 603.306 756.959 L 592.236 845.433 C 598.546 846.258 600.103 846.792 606.19 845.613 C 609.353 836.714 616.258 773.001 617.864 759.722 C 710.248 784.088 793.046 847.436 770.264 955.477 C 765.463 978.246 754.957 996.501 742.391 1015.9 L 667.779 963.862 L 656.658 974.774 C 679.041 991.76 709.443 1011.79 732.94 1028.23 C 698.223 1068.11 665.016 1088.52 616.745 1108.4 C 605.357 1080.82 593.802 1053.31 582.082 1025.87 L 565.432 1030.88 L 600.176 1113.94 C 551.535 1129.58 499.732 1132.69 449.569 1122.97 L 457.309 1088.23 C 459.732 1077.3 467.099 1047.27 467.502 1037.55 C 463.699 1035.06 459.68 1035.15 454.792 1034.4 L 435.618 1120.14 C 310.731 1084.76 230.083 987.519 311.056 864.759 C 323.484 871.461 387.385 902.365 393.538 908.665 C 390.644 923.499 392.656 932.561 406.144 940.366 C 439.006 959.383 478.761 916.998 440.39 896.065 C 430.17 890.489 416.762 892.175 406.22 896.403 L 404.426 897.141 L 319.516 853.351 C 353.478 813.548 390.069 790.873 438.49 772.403 L 479.326 854.201 L 495.968 848.547 C 482.231 822.495 468.283 793.186 455.062 766.669 C 489.664 757.088 509.35 754.098 544.538 752.601 z"/>
<path transform="translate(0,0)" fill="rgb(15,104,79)" d="M 563.714 917.521 C 603.781 916.449 620.395 954.178 577.026 969.968 C 562.249 971.816 546.012 967.538 540.342 952.255 C 537.972 945.888 538.463 938.807 541.689 932.827 C 546.746 923.323 554.143 920.646 563.714 917.521 z"/>
<path transform="translate(0,0)" fill="rgb(254,254,254)" d="M 1219.46 341.423 C 1252.43 338.478 1279.01 340.739 1311.15 347.504 C 1307.43 364.049 1295.83 411.214 1295.34 424.741 C 1297.2 427.962 1296.9 428.079 1300.24 429.538 L 1303.78 428.117 C 1313.03 417.744 1321.28 368.305 1324.91 351.22 C 1442.34 385.256 1494.27 485.956 1418.94 590.597 L 1354.31 538.437 L 1342.09 548.679 L 1408.66 602.346 C 1374.65 637.178 1344.4 653.606 1298.88 669.409 L 1272.84 590.103 L 1255.32 593.732 C 1264.71 619.23 1272.8 647.588 1282.13 673.811 C 1235.79 685.713 1196.56 685.144 1150.15 676.171 C 1146.84 675.368 1148.45 676.085 1145.42 673.805 C 1144.23 660.856 1165.04 614.209 1166.36 598.643 C 1162.17 594.746 1160.6 595.523 1154.06 593.988 L 1130.84 671.08 C 1017.78 632.544 956.488 538.311 1035.35 432.345 C 1057.57 445.234 1083.87 459.002 1104.71 473.744 C 1110.61 477.889 1107.73 485.369 1108.9 491.927 C 1112.9 514.284 1148.05 516.216 1160.26 498.223 C 1163.89 492.958 1165.13 486.41 1163.67 480.186 C 1159.16 461.539 1137.18 460.13 1121.84 464.4 L 1120.15 464.889 C 1096 450.163 1069.61 435.314 1045.05 420.981 C 1080.62 384.867 1110.97 368.803 1158.55 352.912 L 1188.79 429.861 L 1206 425.315 C 1195.64 400.757 1185.57 373.441 1175.78 348.452 C 1189.98 345.024 1204.96 343 1219.46 341.423 z"/>
<path transform="translate(0,0)" fill="rgb(15,104,79)" d="M 1220.73 487.351 C 1258.77 484.868 1271.55 519.193 1234.91 535.675 C 1197.23 536.965 1181.04 499.643 1220.73 487.351 z"/>
<path transform="translate(0,0)" fill="rgb(254,254,254)" d="M 1689.62 964.604 C 1712.45 961.87 1739.84 964.522 1762.27 969.453 C 1750.05 990.988 1738.01 1012.63 1726.16 1034.37 L 1742.78 1040.73 L 1780.35 973.668 C 1823.05 987.137 1853.1 1004.83 1885.25 1035.58 L 1813.32 1080.29 L 1823.58 1091.45 C 1846.73 1076.42 1871.93 1061.28 1895.46 1046.62 C 1922.66 1079.26 1937.03 1113.53 1940.35 1155.69 L 1859.22 1157.17 C 1845.22 1132.78 1810.07 1134.38 1802.64 1151.87 C 1789.23 1183.44 1843.49 1211.87 1860.27 1164.3 C 1887.01 1163.71 1913.76 1163.25 1940.5 1162.94 C 1938.76 1223.62 1910.37 1268.62 1856.59 1296.59 C 1806.86 1318.72 1764.58 1320.39 1711.7 1312.48 C 1720.01 1291.49 1733.26 1264.78 1742.92 1243.82 L 1726.28 1238.44 L 1694.01 1308.3 C 1647.94 1294.72 1620.05 1277.85 1585.81 1244.66 C 1607.8 1230.93 1634.29 1211.63 1656.1 1196.69 L 1644.98 1185.6 L 1575.63 1233.15 C 1548.05 1197.26 1537.26 1170.08 1532.71 1125.55 C 1542.47 1124.66 1609.56 1116.9 1613.97 1114.32 C 1613.85 1110.14 1614.25 1110.02 1611.95 1106.68 C 1594.89 1107.18 1551.31 1114.29 1532.69 1116.78 C 1537.12 1025.29 1602.74 974.251 1689.62 964.604 z"/>
<path transform="translate(0,0)" fill="rgb(15,104,79)" d="M 1726.51 1117.97 C 1764.37 1112.91 1783.93 1147.73 1747.01 1164.16 C 1708.91 1170.45 1690.31 1134.09 1726.51 1117.97 z"/>
<path transform="translate(0,0)" fill="rgb(254,254,254)" d="M 1409.72 1415.18 C 1431.89 1411.65 1464.84 1416.46 1486.59 1420.83 C 1473.52 1442.69 1460.64 1464.65 1447.94 1486.72 L 1464.54 1493.46 C 1477.26 1471.01 1491.18 1448.07 1504.3 1425.76 C 1548.09 1440.16 1577.29 1459.31 1609.45 1491.61 L 1535.56 1534.42 L 1544.76 1545.6 L 1618.68 1502.46 C 1646.22 1538.83 1657.07 1566.65 1660.48 1611.85 L 1578.04 1611.85 C 1574.88 1605.55 1570.88 1598.61 1564.17 1595.71 C 1550.26 1589.72 1529.6 1591.89 1522.57 1606.82 C 1519.82 1612.76 1519.64 1619.56 1522.06 1625.64 C 1524.54 1631.86 1529.51 1636.76 1535.76 1639.15 C 1557.36 1647.63 1576.08 1632.81 1579.5 1620.28 C 1580.27 1617.46 1609.08 1618.62 1616.31 1618.63 C 1629.23 1618.64 1646.3 1618.76 1660.34 1618.82 C 1653.54 1705.29 1600.49 1750.01 1518.2 1765.25 C 1483 1769.53 1460.22 1769.35 1425.1 1762.02 C 1436.26 1740.28 1447.22 1716.8 1457.98 1694.73 L 1441.46 1689.06 L 1407.73 1757.97 C 1362.51 1742.72 1335.35 1726.64 1301.95 1692.66 L 1369.74 1647.72 C 1426.25 1664.61 1433.06 1594.67 1376.93 1602.96 C 1360.3 1605.41 1354.98 1621.45 1358.32 1637.42 L 1292.28 1681.3 C 1266.34 1645.67 1255.25 1617.09 1252.98 1573.07 C 1262.5 1571.8 1330.33 1563.85 1333.39 1561.06 C 1332.72 1556.08 1333.75 1558.06 1330.9 1554.61 C 1319.08 1553.65 1267.79 1561.89 1253.08 1563.99 C 1260.35 1474.39 1323.87 1424.83 1409.72 1415.18 z"/>
<path transform="translate(0,0)" fill="rgb(15,104,79)" d="M 1354.76 1501.08 C 1394.78 1497.01 1409.57 1534.37 1376.44 1548.33 C 1338.18 1553.56 1319.51 1517.05 1354.76 1501.08 z"/>
<path transform="translate(0,0)" fill="rgb(254,254,254)" d="M 2016.77 812.801 C 2023.4 796.282 2039.55 777.606 2052.92 766.129 C 2105.41 721.099 2181.14 714.101 2243.91 739.851 C 2254.89 744.404 2265.46 749.895 2275.49 756.264 L 2216.21 799.568 L 2227.53 810.421 L 2289 765.712 C 2320.71 792.248 2337.32 814.482 2351.63 853.68 C 2330.29 857.629 2297.85 863.52 2275.47 867.33 C 2274.74 868.095 2274.01 868.86 2273.28 869.625 C 2273.79 874.909 2272.84 872.67 2275.96 876.691 C 2290.3 876.667 2337.21 866.417 2354.4 863.702 C 2362.79 905.957 2360.51 931.751 2343.23 971.564 L 2341.42 974.403 C 2340.9 975.382 2340.38 976.361 2339.85 977.34 C 2318.17 1016.48 2281.53 1045.14 2238.31 1056.74 C 2183.48 1072.03 2129.82 1058.84 2081.33 1031.68 L 2135.79 984.993 L 2123.17 974.887 C 2106.12 990.458 2085.49 1007.26 2067.74 1022.45 C 2034.63 996.427 2019.58 973.655 2005.72 934.495 C 2016.67 931.869 2078.68 919.036 2082.33 913.557 L 2080.02 907.701 C 2073.99 904.146 2014.29 921.17 2003.22 923.979 C 1993.56 881.935 1997.95 854.993 2014.15 815.627 L 2016.77 812.801 z"/>
<path transform="translate(0,0)" fill="rgb(15,104,79)" d="M 2275.75 952.5 C 2262.8 969.77 2239.01 973.541 2226.45 954.137 C 2222.9 948.628 2221.9 941.852 2223.71 935.551 C 2225.28 930.254 2229.05 925.891 2234.07 923.577 C 2250.99 915.687 2269.12 922.211 2276.9 939.329 C 2276.74 941.834 2276.37 950.644 2275.75 952.5 z"/>
<path transform="translate(0,0)" fill="rgb(15,104,79)" d="M 2016.77 812.801 C 2029.42 815.342 2078.32 824.088 2085.31 830.652 C 2079.11 830.783 2022.8 817.875 2014.15 815.627 L 2016.77 812.801 z"/>
<path transform="translate(0,0)" fill="rgb(143,178,165)" d="M 2276.9 939.329 C 2277.36 943.707 2277.32 945.395 2279.02 949.558 C 2285.89 952.782 2335.87 970.238 2343.23 971.564 L 2341.42 974.403 C 2332.62 970.393 2284.39 954.326 2275.75 952.5 C 2276.37 950.644 2276.74 941.834 2276.9 939.329 z"/>
<path transform="translate(0,0)" fill="rgb(15,104,79)" d="M 2165.41 745.989 C 2178.11 744.579 2191.78 747.009 2198.64 759.055 C 2201.4 763.864 2202.04 769.604 2200.4 774.901 C 2197.45 784.548 2190.15 788.038 2181.78 792.169 C 2169.84 794.257 2155.43 791.063 2149.06 779.779 C 2146.21 774.784 2145.6 768.812 2147.38 763.342 C 2150.36 754.033 2157.27 750.06 2165.41 745.989 z"/>
<path transform="translate(0,0)" fill="rgb(254,254,254)" d="M 1823.58 88.6063 C 1865.01 73.4086 1893.2 71.1319 1936.56 73.3357 L 1919.22 143.888 L 1933.78 146.47 C 1939.32 122.725 1945.37 98.8503 1951.2 75.1515 C 1995.83 83.8808 2017.98 93.7268 2053.78 122.024 C 2066.9 136.251 2078.74 150.276 2086.68 168.123 C 2099.42 196.862 2100.1 229.511 2088.57 258.755 C 2074.01 295.369 2040.01 328.251 2004 343.511 L 1982.45 282.192 L 1965.27 286.289 L 1987.81 351.149 C 1912.47 378.74 1822.44 373.713 1760.92 318.069 C 1769.45 310.073 1815.38 269.579 1817.42 263.144 C 1806.98 264.59 1767.59 304.053 1756.66 314.102 C 1747.88 304.897 1742.6 297.947 1735.58 287.478 C 1733.6 284.226 1731.73 280.911 1729.96 277.538 C 1689.28 198.437 1735.9 131.828 1807.72 95.426 L 1837.7 153.765 C 1831.8 160.281 1825.34 172.728 1831.25 180.476 C 1858.36 216 1907.31 158.528 1854.21 147.666 L 1823.58 88.6063 z"/>
<path transform="translate(0,0)" fill="rgb(15,104,79)" d="M 1997.9 180.12 C 1998.07 178.411 1998.4 175.605 2000.5 173.33 C 2016.13 156.417 2031.82 137.846 2048.88 122.427 C 2050.51 122.292 2052.14 122.158 2053.78 122.024 C 2053.67 123.673 2053.83 125.816 2052.02 127.771 C 2036.05 145.07 2020 164.05 2002.56 179.768 C 2001.01 179.886 1999.45 180.003 1997.9 180.12 z"/>
<path transform="translate(0,0)" fill="rgb(15,104,79)" d="M 1888.51 257.719 C 1922.25 254.751 1937.67 285.822 1899.98 298.7 C 1891.92 301.454 1879.79 348.805 1876.99 358.045 C 1874.8 363.5 1876.59 361.791 1872.56 364.408 C 1867.13 362.816 1866.17 363.536 1862.96 359.976 C 1864.07 350.297 1878.55 308.017 1882.28 296.222 C 1865.69 281.351 1869.86 267.654 1888.51 257.719 z"/>
<path transform="translate(0,0)" fill="rgb(15,104,79)" d="M 1989.65 231.391 C 2000.55 229.784 2011.69 230.201 2017.98 240.856 C 2020.64 245.426 2021.17 250.928 2019.44 255.922 C 2016.4 264.667 2011.38 268.259 2003.63 272.278 C 1972.29 278.833 1961.19 248.034 1989.65 231.391 z"/>
<path transform="translate(0,0)" fill="rgb(254,254,254)" d="M 2584.38 575.495 C 2607.22 572.87 2632.41 578.062 2654.22 584.296 C 2641.91 599.918 2629.49 616.947 2617.44 632.883 L 2633.15 640.931 L 2671.13 590.82 C 2702.18 604.817 2723.49 621.144 2744.63 647.703 C 2732.38 653.3 2695.12 669.386 2685.68 676.212 C 2686.44 680.546 2688.99 683.108 2691.68 687.05 L 2752.66 658.808 C 2771.82 692.413 2776.45 710.856 2775.08 749.28 C 2754.22 746.9 2732.32 745.175 2711.34 743.213 C 2698.15 711.102 2660.88 726.172 2665.22 747.941 C 2666.44 753.787 2670.02 758.872 2675.11 761.997 C 2689.92 771.223 2703.57 761.565 2711.35 748.499 C 2730.8 751.2 2754.56 752.84 2774.42 754.761 C 2774 756.838 2773.56 758.909 2773.09 760.975 C 2764.64 798.107 2745.42 822.378 2713.76 842.445 C 2670.5 866.951 2623.15 865.772 2576.45 853.402 L 2607.93 802.93 L 2591.57 795.842 C 2580.75 812.433 2569.93 830.383 2559.36 847.249 C 2525.81 833.069 2506.08 816.93 2483.46 788.94 L 2543.68 756.74 L 2534.77 745.519 L 2475.65 777.294 C 2459.11 749.581 2451.59 722.334 2454.54 690.101 C 2466.63 689.115 2511.07 689.056 2519.21 685.963 C 2520.15 681.759 2520.39 683.752 2518.22 679.821 C 2501.91 679.301 2472.44 681.515 2455.19 682.261 C 2471.14 615.679 2517.33 582.324 2584.38 575.495 z"/>
<path transform="translate(0,0)" fill="rgb(15,104,79)" d="M 2578.96 684.957 C 2610.63 681.402 2625.31 709.304 2596.04 722.504 C 2584.81 724.693 2572.9 722.804 2566.41 712.357 C 2563.97 708.483 2563.32 703.743 2564.63 699.357 C 2566.99 691.427 2572.17 688.652 2578.96 684.957 z"/>
</svg>